<?xml version="1.0" standalone="no"?><!DOCTYPE svg PUBLIC "-//W3C//DTD SVG 1.1//EN" "http://www.w3.org/Graphics/SVG/1.1/DTD/svg11.dtd"><svg t="1713627904184" class="icon" viewBox="0 0 1024 1024" version="1.1" xmlns="http://www.w3.org/2000/svg" p-id="1515" xmlns:xlink="http://www.w3.org/1999/xlink" width="16" height="16"><path d="M300.05592 0h423.88816c200.041092 0 300.05592 100.014829 300.05592 300.05592v423.88816c0 200.041092-100.014829 300.05592-300.05592 300.05592H300.05592C100.014829 1024 0 923.973737 0 723.94408V300.05592C0 100.014829 100.014829 0 300.05592 0z" fill="#598BFC" opacity=".15" p-id="1516"></path><path d="M243.502434 299.861539m44.067355 0l448.860422 0q44.067355 0 44.067355 44.067355l0 336.130778q0 44.067355-44.067355 44.067355l-448.860422 0q-44.067355 0-44.067355-44.067355l0-336.130778q0-44.067355 44.067355-44.067355Z" fill="#598BFC" p-id="1517"></path><path d="M512 538.287195L262.025816 339.538166c-8.895797-7.077761-10.370807-20.02126-3.30448-28.917057 7.077761-8.895797 20.02126-10.370807 28.917058-3.30448l224.361606 178.373308 222.62361-177.001206c9.856269-7.832418 24.183304-6.197329 32.015722 3.65894 6.311671 7.94676 4.996739 19.506722-2.95002 25.818393L511.988566 538.287195z" fill="#FFFFFF" p-id="1518"></path></svg>