<?xml version="1.0" standalone="no"?><!DOCTYPE svg PUBLIC "-//W3C//DTD SVG 1.1//EN" "http://www.w3.org/Graphics/SVG/1.1/DTD/svg11.dtd"><svg t="1713628364538" class="icon" viewBox="0 0 1024 1024" version="1.1" xmlns="http://www.w3.org/2000/svg" p-id="2035" xmlns:xlink="http://www.w3.org/1999/xlink" width="16" height="16"><path d="M512 512m-485.4784 0a485.4784 485.4784 0 1 0 970.9568 0 485.4784 485.4784 0 1 0-970.9568 0Z" fill="#FBA3A3" p-id="2036"></path><path d="M678.6048 329.8816h-23.9616a24.2688 24.2688 0 0 1-19.9168-10.24l-31.5904-44.8512a47.2064 47.2064 0 0 0-38.656-20.0704h-102.4a47.2576 47.2576 0 0 0-38.656 20.0704l-31.5392 44.8512a24.2688 24.2688 0 0 1-19.9168 10.24h-48.2304a88.6272 88.6272 0 0 0-88.576 88.576v213.6064a88.576 88.576 0 0 0 88.576 88.5248h379.2384a88.5248 88.5248 0 0 0 88.5248-88.5248v-189.44a112.9472 112.9472 0 0 0-112.896-112.7424zM513.3312 629.76A121.344 121.344 0 1 1 634.88 508.2624 121.4976 121.4976 0 0 1 513.3312 629.76z" fill="#FFFFFF" p-id="2037"></path><path d="M513.3312 508.2624m-71.6288 0a71.6288 71.6288 0 1 0 143.2576 0 71.6288 71.6288 0 1 0-143.2576 0Z" fill="#FFFFFF" p-id="2038"></path></svg>