<?xml version="1.0" standalone="no"?><!DOCTYPE svg PUBLIC "-//W3C//DTD SVG 1.1//EN" "http://www.w3.org/Graphics/SVG/1.1/DTD/svg11.dtd"><svg t="1713628410804" class="icon" viewBox="0 0 1024 1024" version="1.1" xmlns="http://www.w3.org/2000/svg" p-id="2203" xmlns:xlink="http://www.w3.org/1999/xlink" width="16" height="16"><path d="M512 512m-485.4784 0a485.4784 485.4784 0 1 0 970.9568 0 485.4784 485.4784 0 1 0-970.9568 0Z" fill="#FFD6A9" p-id="2204"></path><path d="M501.76 640H384.5632l64.2048 109.1072a24.4736 24.4736 0 0 0 21.248 12.288h41.984a24.576 24.576 0 0 0 22.8352-33.6384z" fill="#FFFFFF" p-id="2205"></path><path d="M660.736 275.8656l-148.48 77.056h-139.264a76.8 76.8 0 0 0-76.8 76.8v96.8192a76.8 76.8 0 0 0 76.8 76.8h139.4176l148.48 76.8a31.7952 31.7952 0 0 0 46.4896-28.2624V304.128a31.8464 31.8464 0 0 0-46.6432-28.2624z m-160.3584 258.304a25.6 25.6 0 0 1-51.2 0V424.0384a25.6 25.6 0 0 1 51.2 0z" fill="#FFFFFF" p-id="2206"></path></svg>