<?xml version="1.0" standalone="no"?><!DOCTYPE svg PUBLIC "-//W3C//DTD SVG 1.1//EN" "http://www.w3.org/Graphics/SVG/1.1/DTD/svg11.dtd"><svg t="1713628426684" class="icon" viewBox="0 0 1024 1024" version="1.1" xmlns="http://www.w3.org/2000/svg" p-id="2371" xmlns:xlink="http://www.w3.org/1999/xlink" width="16" height="16"><path d="M512 512m-485.4784 0a485.4784 485.4784 0 1 0 970.9568 0 485.4784 485.4784 0 1 0-970.9568 0Z" fill="#A5DEC3" p-id="2372"></path><path d="M618.8032 258.3552H405.1968a136.4992 136.4992 0 0 0-136.4992 136.5504v253.2864a136.448 136.448 0 0 0 136.4992 136.4992h213.6064a136.448 136.448 0 0 0 136.4992-136.4992V394.9056a136.4992 136.4992 0 0 0-136.4992-136.5504zM407.808 390.7072h141.0048a25.6 25.6 0 0 1 0 51.2H407.808a25.6 25.6 0 0 1 0-51.2z m208.384 209.3056h-208.384a25.6 25.6 0 0 1 0-51.2h208.384a25.6 25.6 0 0 1 0 51.2z" fill="#FFFFFF" p-id="2373"></path></svg>