<?xml version="1.0" standalone="no"?><!DOCTYPE svg PUBLIC "-//W3C//DTD SVG 1.1//EN" "http://www.w3.org/Graphics/SVG/1.1/DTD/svg11.dtd"><svg t="1714657391998" class="icon" viewBox="0 0 1024 1024" version="1.1" xmlns="http://www.w3.org/2000/svg" p-id="1695" width="16" height="16" xmlns:xlink="http://www.w3.org/1999/xlink"><path d="M888.021333 127.189333H136.021333c-39.637333 0-72.021333 32.426667-72.021333 72.021334v625.493333c0 39.594667 32.426667 71.978667 72.021333 71.978667h752c39.594667 0 71.978667-32.384 71.978667-71.978667V199.210667c0-39.594667-32.426667-72.021333-72.021333-72.021334z m0 697.301334l-0.128 0.128H136.192l-0.085333-0.128v-212.778667l185.6-189.824 217.301333 269.909333a35.968 35.968 0 0 0 47.189333 5.973334l160.512-108.458667 141.269334 66.474667v168.704z m0-259.285334l-118.101333-48.725333a35.882667 35.882667 0 0 0-42.026667-1.194667l-155.776 105.130667-222.122666-275.2a36.138667 36.138667 0 0 0-52.778667-1.408l-161.194667 164.906667V199.253333l0.085334-0.085333h751.701333l0.085333 0.085333 0.128 365.909334z m-190.037333-292.224a101.12 101.12 0 0 0-100.992 101.034667 101.12 101.12 0 0 0 100.992 100.992 101.12 101.12 0 0 0 101.034667-100.992 101.12 101.12 0 0 0-101.034667-101.034667z m0 130.005334a29.013333 29.013333 0 1 1 0.042667-58.026667 29.013333 29.013333 0 0 1 0 58.026667z" fill="#707070" p-id="1696"></path></svg>