<?xml version="1.0" standalone="no"?><!DOCTYPE svg PUBLIC "-//W3C//DTD SVG 1.1//EN" "http://www.w3.org/Graphics/SVG/1.1/DTD/svg11.dtd"><svg t="1713708567725" class="icon" viewBox="0 0 1024 1024" version="1.1" xmlns="http://www.w3.org/2000/svg" p-id="3846" xmlns:xlink="http://www.w3.org/1999/xlink" width="12" height="12"><path d="M489.195621 886.058324S159.149697 681.566954 159.149697 467.122907c0-181.805696 147.776671-329.181231 330.045924-329.181231s330.045925 147.375535 330.045925 329.181231c0 223.762273-330.045925 418.935418-330.045925 418.935417z m0-688.260399c-149.146878 0-270.041296 120.55775-270.041296 269.324982 0 148.725276 270.041296 359.099634 270.041296 359.099634s270.02083-210.374358 270.02083-359.099634c0-148.767232-120.895441-269.324982-270.02083-269.324982z m0 418.935418c-82.859149 0-150.011572-66.982554-150.011572-149.610436 0-82.648348 67.152423-149.631926 150.011572-149.631926s150.011572 66.983577 150.011573 149.631926c0 82.627882-67.152423 149.610436-150.011573 149.610436z m0-239.406579c-49.715285 0-90.006943 40.206724-90.006943 89.796143 0 49.567929 40.291658 89.774653 90.006943 89.774652s90.006943-40.206724 90.006944-89.774652c0-49.589418-40.291658-89.796142-90.006944-89.796143z" fill="#515151" p-id="3847"></path></svg>